<?xml version="1.0" standalone="no"?>
<!DOCTYPE svg PUBLIC "-//W3C//DTD SVG 20010904//EN"
 "http://www.w3.org/TR/2001/REC-SVG-20010904/DTD/svg10.dtd">
<svg version="1.0" xmlns="http://www.w3.org/2000/svg"
 width="96.000000pt" height="96.000000pt" viewBox="0 0 96.000000 96.000000"
 preserveAspectRatio="xMidYMid meet">

<g transform="translate(0.000000,96.000000) scale(0.100000,-0.100000)"
fill="#000000" stroke="none">
<path d="M320 810 c-27 -29 -31 -30 -115 -30 -82 0 -88 -1 -116 -29 l-29 -29
0 -242 0 -242 29 -29 29 -29 362 0 362 0 29 29 29 29 0 242 0 242 -29 29 c-28
28 -34 29 -116 29 -84 0 -88 1 -115 30 l-28 30 -132 0 -132 0 -28 -30z m285
-60 l15 -29 108 -3 107 -3 0 -235 0 -235 -355 0 -355 0 0 235 0 235 107 3 108
3 15 29 16 30 109 0 109 0 16 -30z"/>
<path d="M180 630 c0 -27 3 -30 30 -30 27 0 30 3 30 30 0 27 -3 30 -30 30 -27
0 -30 -3 -30 -30z"/>
<path d="M400 638 c-132 -67 -132 -249 0 -315 56 -29 104 -29 160 -1 132 67
132 249 0 316 -24 12 -60 22 -80 22 -20 0 -56 -10 -80 -22z m164 -77 c26 -27
31 -39 31 -81 0 -43 -5 -54 -33 -82 -28 -28 -39 -33 -82 -33 -43 0 -54 5 -82
33 -28 28 -33 39 -33 81 0 52 25 92 70 112 37 16 96 3 129 -30z"/>
</g>
</svg>
